<svg width="200" height="200" viewBox="0 0 1024 1024" version="1.1" xmlns="http://www.w3.org/2000/svg"><path d="M786.5 487.2c-22.9 0-41.5 18.6-41.5 41.5V755c0 16.9-13.8 30.7-30.7 30.7H309.7c-16.9 0-30.7-13.8-30.7-30.7V268.9c0-16.9 13.8-30.7 30.7-30.7h144.8c22.9 0 41.5-18.6 41.5-41.5s-18.6-41.5-41.5-41.5H309.7c-62.7 0-113.7 51-113.7 113.7V755c0 62.7 51 113.7 113.7 113.7h404.6c62.7 0 113.7-51 113.7-113.7V528.7c0-22.9-18.6-41.5-41.5-41.5z" fill="#8551FF" class=""></path><path d="M592.7 333.8h57.7v57.7c0 21.6 17.5 39.2 39.2 39.2s39.2-17.5 39.2-39.2v-57.7h57.7c21.6 0 39.2-17.5 39.2-39.2 0-21.6-17.5-39.2-39.2-39.2h-57.7v-57.7c0-21.6-17.5-39.2-39.2-39.2s-39.2 17.5-39.2 39.2v57.7h-57.7c-21.6 0-39.2 17.5-39.2 39.2 0 21.6 17.5 39.2 39.2 39.2z" fill="#8551FF" opacity=".5" class=""></path></svg>