<svg width="200" height="200" viewBox="0 0 1024 1024" version="1.1" xmlns="http://www.w3.org/2000/svg"><path d="M874.31 232.59H149.7a45.5 45.5 0 0 0 0 91h724.61a45.5 45.5 0 1 0 0-91zM357.59 175.87h308.84a45.5 45.5 0 0 0 0-91H357.59a45.5 45.5 0 0 0 0 91zM462.59 709.09V466.54a45.5 45.5 0 0 0-91 0v242.55a45.5 45.5 0 0 0 91 0zM664.54 709.09V466.54a45.5 45.5 0 1 0-91 0v242.55a45.5 45.5 0 1 0 91 0z" class=""></path><path d="M807.43 380.37a45.52 45.52 0 0 0-45.5 45.5v366.78a55.55 55.55 0 0 1-55.5 55.5H317.59a55.55 55.55 0 0 1-55.5-55.5V425.87a45.5 45.5 0 1 0-91 0v366.78c0 80.78 65.72 146.5 146.5 146.5h388.84c80.77 0 146.5-65.72 146.5-146.5V425.87a45.52 45.52 0 0 0-45.5-45.5z" class=""></path></svg>