<svg width="200" height="200" viewBox="0 0 1024 1024" version="1.1" xmlns="http://www.w3.org/2000/svg"><path d="M682.666667 128a170.666667 170.666667 0 0 1 170.666666 170.666667v426.666666a170.666667 170.666667 0 0 1-170.666666 170.666667H341.333333a170.666667 170.666667 0 0 1-170.666666-170.666667V298.666667a170.666667 170.666667 0 0 1 170.666666-170.666667h341.333334z m-256 85.333333H341.333333c-56.874667 0-85.333333 28.458667-85.333333 85.333334v426.666666c0 56.874667 28.458667 85.333333 85.333333 85.333334h341.333334c56.874667 0 85.333333-28.458667 85.333333-85.333334V298.666667c0-40.234667-14.208-66.218667-42.666667-77.994667V426.666667a42.666667 42.666667 0 0 1-70.058666 32.725333L576 393.088l-79.274667 66.304A42.666667 42.666667 0 0 1 426.666667 426.666667V213.333333z m213.333333 0h-128v122.026667l36.608-30.634667a42.666667 42.666667 0 0 1 54.784 0L640 335.36V213.333333z" class=""></path></svg>