<svg width="200" height="200" viewBox="0 0 1024 1024" version="1.1" xmlns="http://www.w3.org/2000/svg"><path d="M901.75 347.34c-21.31-50.37-51.8-95.61-90.64-134.45s-84.07-69.33-134.45-90.64C624.49 100.18 569.09 89 512 89s-112.49 11.19-164.66 33.25c-50.37 21.31-95.61 51.8-134.45 90.64s-69.33 84.07-90.64 134.45C100.18 399.51 89 454.91 89 512s11.19 112.49 33.25 164.66c21.31 50.37 51.8 95.61 90.64 134.45s84.07 69.33 134.45 90.64C399.51 923.82 454.91 935 512 935s112.49-11.19 164.66-33.25c50.37-21.31 95.61-51.8 134.45-90.64s69.33-84.07 90.64-134.45C923.82 624.49 935 569.09 935 512s-11.19-112.49-33.25-164.66zM512 875c-200.16 0-363-162.84-363-363s162.84-363 363-363 363 162.84 363 363-162.84 363-363 363z" class="" fill="#707070"></path><path d="M689.66 555.32c-16.02-4.23-32.43 5.33-36.67 21.34-17.05 64.55-75.08 109.64-141.11 109.64s-125.5-46.08-141.74-112.07c-3.96-16.09-20.21-25.93-36.3-21.96-16.09 3.96-25.92 20.21-21.96 36.3 10.89 44.24 36.46 84.28 72.01 112.76 36.22 29 81.67 44.98 127.99 44.98 93.25 0 175.13-63.46 199.13-154.31 4.23-16.02-5.33-32.44-21.34-36.67z" class="" fill="#707070"></path><path d="M376.5 431.5m-64.5 0a64.5 64.5 0 1 0 129 0 64.5 64.5 0 1 0-129 0Z" class="" fill="#707070"></path><path d="M646.5 431.5m-64.5 0a64.5 64.5 0 1 0 129 0 64.5 64.5 0 1 0-129 0Z" class="" fill="#707070"></path></svg>