<svg width="200" height="200" viewBox="0 0 1024 1024" version="1.1" xmlns="http://www.w3.org/2000/svg"><path d="M110.08 811.154286l-0.877714 0.804571a264.045714 264.045714 0 0 1-21.723429-85.284571c2.925714 31.085714 11.044571 59.245714 22.601143 84.48zM384 442.88a101.522286 101.522286 0 1 0 0-203.117714 101.522286 101.522286 0 0 0 0 203.117714z" class="" fill="#2C2C2C"></path><path d="M690.761143 85.357714H333.238857c-155.355429 0-247.954286 92.598857-247.954286 247.954286v357.449143c0 46.518857 8.118857 87.04 23.917715 121.197714 36.717714 81.042286 115.2 126.756571 224.036571 126.756572h357.522286c155.282286 0 247.954286-92.598857 247.954286-247.954286V593.188571 333.238857c0-155.282286-92.672-247.881143-247.954286-247.881143z m178.322286 448a95.085714 95.085714 0 0 0-120.32 0L571.318857 685.641143a95.085714 95.085714 0 0 1-120.32 0l-14.555428-11.922286c-30.281143-26.477714-78.482286-29.037714-112.64-5.997714l-159.524572 107.154286a227.474286 227.474286 0 0 1-14.921143-84.114286V333.238857c0-120.32 63.561143-183.881143 183.881143-183.881143h357.522286c120.32 0 183.881143 63.634286 183.881143 183.881143v204.8l-5.558857-4.681143z" fill="#2C2C2C" class=""></path></svg>